<svg xmlns="http://www.w3.org/2000/svg" width="1600" height="1200" viewBox="0 0 1600 1200" role="img" aria-labelledby="title desc">
  <title id="title">VoiceLoop memory and retrieval architecture</title>
  <desc id="desc">Detailed current memory architecture showing TurnContext, the five-axis Qdrant memory collection, SQLite operational storage and fallback, retrieval, planning safety, and controlled write-back.</desc>
  <defs>
    <linearGradient id="page" x1="0" y1="0" x2="1" y2="1">
      <stop offset="0" stop-color="#ffffff"/>
      <stop offset=".6" stop-color="#f7fbff"/>
      <stop offset="1" stop-color="#edf7ff"/>
    </linearGradient>
    <linearGradient id="headerBlue" x1="0" y1="0" x2="1" y2="0">
      <stop offset="0" stop-color="#1478ec"/>
      <stop offset=".55" stop-color="#275bd8"/>
      <stop offset="1" stop-color="#483bb9"/>
    </linearGradient>
    <linearGradient id="cyanBand" x1="0" y1="0" x2="1" y2="0">
      <stop offset="0" stop-color="#e7f8ff"/>
      <stop offset="1" stop-color="#f4fbff"/>
    </linearGradient>
    <linearGradient id="greenBand" x1="0" y1="0" x2="1" y2="0">
      <stop offset="0" stop-color="#e9fbf6"/>
      <stop offset="1" stop-color="#f4fffb"/>
    </linearGradient>
    <linearGradient id="purpleBand" x1="0" y1="0" x2="1" y2="0">
      <stop offset="0" stop-color="#f0edff"/>
      <stop offset="1" stop-color="#faf8ff"/>
    </linearGradient>
    <linearGradient id="redBand" x1="0" y1="0" x2="1" y2="0">
      <stop offset="0" stop-color="#fff0f1"/>
      <stop offset="1" stop-color="#fff9f9"/>
    </linearGradient>
    <filter id="shadow" x="-10%" y="-10%" width="120%" height="130%">
      <feDropShadow dx="0" dy="4" stdDeviation="5" flood-color="#5a91c7" flood-opacity=".15"/>
    </filter>
    <marker id="arrowBlue" markerWidth="10" markerHeight="10" refX="8" refY="5" orient="auto" markerUnits="strokeWidth">
      <path d="M0 0 9 5 0 10Z" fill="#1b86e8"/>
    </marker>
    <marker id="arrowGreen" markerWidth="10" markerHeight="10" refX="8" refY="5" orient="auto" markerUnits="strokeWidth">
      <path d="M0 0 9 5 0 10Z" fill="#17a77a"/>
    </marker>
    <marker id="arrowPurple" markerWidth="10" markerHeight="10" refX="8" refY="5" orient="auto" markerUnits="strokeWidth">
      <path d="M0 0 9 5 0 10Z" fill="#725ee8"/>
    </marker>
    <style>
      .page-title { fill: #123a99; font: 800 34px "Segoe UI", Arial, sans-serif; letter-spacing: -.5px; }
      .page-sub { fill: #5c77a0; font: 15px "Segoe UI", Arial, sans-serif; }
      .brand { fill: #0d3a90; font: 800 27px "Segoe UI", Arial, sans-serif; }
      .tag { fill: #5574a2; font: 700 8px "Segoe UI", Arial, sans-serif; letter-spacing: 1.9px; }
      .section { fill: #164db3; font: 800 14px "Segoe UI", Arial, sans-serif; letter-spacing: .4px; }
      .section-green { fill: #087a5c; font: 800 14px "Segoe UI", Arial, sans-serif; letter-spacing: .4px; }
      .section-purple { fill: #5b42ba; font: 800 14px "Segoe UI", Arial, sans-serif; letter-spacing: .4px; }
      .section-red { fill: #c12d45; font: 800 14px "Segoe UI", Arial, sans-serif; letter-spacing: .4px; }
      .heading { fill: #123875; font: 800 19px "Segoe UI", Arial, sans-serif; }
      .subheading { fill: #174c9b; font: 800 14px "Segoe UI", Arial, sans-serif; }
      .body { fill: #35577f; font: 13px "Segoe UI", Arial, sans-serif; }
      .small { fill: #6480a2; font: 11px "Segoe UI", Arial, sans-serif; }
      .tiny { fill: #728ba9; font: 10px "Segoe UI", Arial, sans-serif; }
      .chip { fill: #214d88; font: 700 11px "Segoe UI", Arial, sans-serif; }
      .mono { fill: #244c92; font: 12px Consolas, "SFMono-Regular", monospace; }
      .num { fill: #ffffff; font: 800 14px "Segoe UI", Arial, sans-serif; text-anchor: middle; dominant-baseline: middle; }
      .weight { fill: #ffffff; font: 800 11px Consolas, monospace; text-anchor: middle; dominant-baseline: middle; }
      .timeline-num { fill: #ffffff; font: 800 12px "Segoe UI", Arial, sans-serif; text-anchor: middle; dominant-baseline: middle; }
    </style>
  </defs>

  <rect width="1600" height="1200" fill="url(#page)"/>
  <rect width="1600" height="8" fill="url(#headerBlue)"/>
  <path d="M1450 18 1578 18 1578 94 1522 51Z" fill="#cfeaff"/>
  <path d="M1498 18 1578 18 1578 72Z" fill="#8dc8f8" opacity=".75"/>

  <!-- Header -->
  <g transform="translate(28 23)">
    <rect x="0" y="21" width="7" height="20" rx="3.5" fill="#12bce8"/>
    <rect x="12" y="12" width="7" height="38" rx="3.5" fill="#16a9ee"/>
    <rect x="24" y="3" width="7" height="56" rx="3.5" fill="#218ff0"/>
    <rect x="36" y="10" width="7" height="42" rx="3.5" fill="#346ce4"/>
    <rect x="48" y="20" width="7" height="23" rx="3.5" fill="#654ed2"/>
    <text x="68" y="31" class="brand">VoiceLoop</text>
    <text x="70" y="47" class="tag">LISTEN  UNDERSTAND  ACT</text>
  </g>
  <text x="365" y="54" class="page-title">Operational Memory - Current Architecture</text>
  <text x="367" y="78" class="page-sub">Associative retrieval in Qdrant + durable operational records and fallback in SQLite</text>
  <g transform="translate(1198 32)">
    <rect width="234" height="35" rx="17.5" fill="#eef8ff" stroke="#68afea"/>
    <circle cx="19" cy="17.5" r="5" fill="#13a776"/>
    <text x="33" y="22" class="chip">CURRENT REPOSITORY VIEW</text>
  </g>

  <!-- Top row: turn input -->
  <g filter="url(#shadow)">
    <rect x="24" y="108" width="320" height="151" rx="12" fill="#ffffff" stroke="#70b5f0" stroke-width="1.5"/>
    <rect x="24" y="108" width="320" height="34" rx="12" fill="url(#cyanBand)"/>
  </g>
  <circle cx="46" cy="125" r="13" fill="#1689e7"/>
  <text x="46" y="125" class="num">1</text>
  <text x="65" y="130" class="section">EXAMPLE TURN - INPUT</text>
  <rect x="42" y="158" width="284" height="58" rx="9" fill="#eef7ff" stroke="#a8d1f2"/>
  <circle cx="65" cy="183" r="14" fill="#297ee8"/>
  <circle cx="65" cy="177" r="5" fill="#ffffff"/>
  <path d="M54 195Q65 183 76 195" fill="#ffffff"/>
  <text x="90" y="176" class="small">User asks:</text>
  <text x="90" y="195" class="chip">"What did we decide about Barcelona?"</text>
  <text x="42" y="235" class="body">The new turn enters as CommandRequest.</text>
  <text x="42" y="250" class="tiny">It does not carry permission from previous text.</text>

  <g filter="url(#shadow)">
    <rect x="362" y="108" width="580" height="151" rx="12" fill="#ffffff" stroke="#70b5f0" stroke-width="1.5"/>
    <rect x="362" y="108" width="580" height="34" rx="12" fill="url(#cyanBand)"/>
  </g>
  <circle cx="384" cy="125" r="13" fill="#1689e7"/>
  <text x="384" y="125" class="num">2</text>
  <text x="403" y="130" class="section">TURNCONTEXT - EPHEMERAL WORKING STATE</text>
  <g transform="translate(380 155)">
    <rect width="168" height="30" rx="7" fill="#eff8ff" stroke="#b4d9f8"/><text x="10" y="19" class="mono">question + session_id</text>
    <rect x="178" width="168" height="30" rx="7" fill="#eff8ff" stroke="#b4d9f8"/><text x="188" y="19" class="mono">recent_turns</text>
    <rect x="356" width="168" height="30" rx="7" fill="#eff8ff" stroke="#b4d9f8"/><text x="366" y="19" class="mono">local_time</text>
    <rect y="40" width="168" height="30" rx="7" fill="#eff8ff" stroke="#b4d9f8"/><text x="10" y="59" class="mono">memories + sources</text>
    <rect x="178" y="40" width="168" height="30" rx="7" fill="#eff8ff" stroke="#b4d9f8"/><text x="188" y="59" class="mono">screen (optional)</text>
    <rect x="356" y="40" width="168" height="30" rx="7" fill="#eff8ff" stroke="#b4d9f8"/><text x="366" y="59" class="mono">tool_observations</text>
  </g>
  <text x="380" y="241" class="small">Created for one turn, consumed by planning, then discarded as a package.</text>

  <g filter="url(#shadow)">
    <rect x="960" y="108" width="312" height="151" rx="12" fill="#ffffff" stroke="#70b5f0" stroke-width="1.5"/>
    <rect x="960" y="108" width="312" height="34" rx="12" fill="url(#cyanBand)"/>
  </g>
  <circle cx="982" cy="125" r="13" fill="#1689e7"/>
  <text x="982" y="125" class="num">3</text>
  <text x="1001" y="130" class="section">ADDITIONAL CONTEXT</text>
  <text x="978" y="161" class="body">&#8226; prior conversation turns</text>
  <text x="978" y="181" class="body">&#8226; explicit user memories</text>
  <text x="978" y="201" class="body">&#8226; recent action summaries</text>
  <text x="978" y="221" class="body">&#8226; optional screen and local time</text>
  <text x="978" y="241" class="small">Tool observations: conversation path only.</text>

  <path d="M344 183H354" stroke="#1b86e8" stroke-width="2.5" marker-end="url(#arrowBlue)"/>
  <path d="M942 183H952" stroke="#1b86e8" stroke-width="2.5" marker-end="url(#arrowBlue)"/>

  <!-- Main storage row -->
  <g filter="url(#shadow)">
    <rect x="24" y="278" width="825" height="286" rx="12" fill="#ffffff" stroke="#70b5f0" stroke-width="1.5"/>
    <rect x="24" y="278" width="825" height="36" rx="12" fill="url(#cyanBand)"/>
  </g>
  <circle cx="46" cy="296" r="13" fill="#1689e7"/>
  <text x="46" y="296" class="num">4</text>
  <text x="65" y="301" class="section">ASSOCIATIVE MEMORY - QDRANT / ONE COLLECTION / FIVE NAMED VECTORS</text>
  <text x="42" y="340" class="heading">voiceloop_memory</text>
  <text x="235" y="340" class="small">Nomic 768d, weighted RRF, provenance payload</text>

  <g transform="translate(42 357)">
    <rect width="246" height="83" rx="9" fill="#eaf6ff" stroke="#73b5ec"/>
    <circle cx="22" cy="22" r="13" fill="#1689e7"/><text x="22" y="22" class="weight">.40</text>
    <text x="45" y="25" class="subheading">semantic</text>
    <text x="14" y="49" class="small">General meaning of the event,</text>
    <text x="14" y="65" class="small">memory, or captured activity.</text>

    <rect x="258" width="246" height="83" rx="9" fill="#eef9ff" stroke="#8bc5ef"/>
    <circle cx="280" cy="22" r="13" fill="#1ba6d7"/><text x="280" y="22" class="weight">.20</text>
    <text x="303" y="25" class="subheading">topic</text>
    <text x="272" y="49" class="small">Project, subject, area, or</text>
    <text x="272" y="65" class="small">conversation theme.</text>

    <rect x="516" width="249" height="83" rx="9" fill="#f2f7ff" stroke="#9fbfe9"/>
    <circle cx="538" cy="22" r="13" fill="#4c7edb"/><text x="538" y="22" class="weight">.15</text>
    <text x="561" y="25" class="subheading">intent</text>
    <text x="530" y="49" class="small">Purpose, goal, need, or reason</text>
    <text x="530" y="65" class="small">behind the remembered text.</text>

    <rect y="96" width="375" height="83" rx="9" fill="#f4f1ff" stroke="#a99be9"/>
    <circle cx="22" cy="118" r="13" fill="#725ee8"/><text x="22" y="118" class="weight">.15</text>
    <text x="45" y="121" class="subheading">decision</text>
    <text x="14" y="145" class="small">Explicit decision, agreement, selected option,</text>
    <text x="14" y="161" class="small">or next step. Empty when no such evidence exists.</text>

    <rect x="387" y="96" width="378" height="83" rx="9" fill="#f8f2ff" stroke="#bea2e9"/>
    <circle cx="409" cy="118" r="13" fill="#9161d8"/><text x="409" y="118" class="weight">.10</text>
    <text x="432" y="121" class="subheading">person_context</text>
    <text x="401" y="145" class="small">Person, client, relationship, or explicit personal</text>
    <text x="401" y="161" class="small">context. Empty when the source does not contain it.</text>
  </g>
  <rect x="42" y="544" width="789" height="13" rx="6.5" fill="#edf7ff"/>
  <rect x="42" y="544" width="316" height="13" rx="6.5" fill="#1689e7"/>
  <rect x="358" y="544" width="158" height="13" fill="#1ba6d7"/>
  <rect x="516" y="544" width="118" height="13" fill="#4c7edb"/>
  <rect x="634" y="544" width="118" height="13" fill="#725ee8"/>
  <rect x="752" y="544" width="79" height="13" rx="6.5" fill="#9161d8"/>

  <g filter="url(#shadow)">
    <rect x="867" y="278" width="405" height="286" rx="12" fill="#ffffff" stroke="#36b994" stroke-width="1.5"/>
    <rect x="867" y="278" width="405" height="36" rx="12" fill="url(#greenBand)"/>
  </g>
  <circle cx="889" cy="296" r="13" fill="#17a77a"/>
  <text x="889" y="296" class="num">5</text>
  <text x="908" y="301" class="section-green">CANONICAL SQL / SQLITE</text>
  <text x="885" y="340" class="heading">Exact records and local fallback</text>
  <g transform="translate(885 356)">
    <rect width="176" height="52" rx="8" fill="#edfbf7" stroke="#91d7c3"/>
    <text x="12" y="20" class="mono">memories</text><text x="12" y="38" class="small">explicit facts / preferences</text>
    <rect x="186" width="176" height="52" rx="8" fill="#edfbf7" stroke="#91d7c3"/>
    <text x="198" y="20" class="mono">vector_memories</text><text x="198" y="38" class="small">semantic JSON fallback</text>
    <rect y="62" width="176" height="52" rx="8" fill="#edfbf7" stroke="#91d7c3"/>
    <text x="12" y="82" class="mono">conversation</text><text x="12" y="100" class="small">role, content, timestamp</text>
    <rect x="186" y="62" width="176" height="52" rx="8" fill="#edfbf7" stroke="#91d7c3"/>
    <text x="198" y="82" class="mono">commands + events</text><text x="198" y="100" class="small">plan, status, results, errors</text>
    <rect y="124" width="176" height="52" rx="8" fill="#edfbf7" stroke="#91d7c3"/>
    <text x="12" y="144" class="mono">meeting records</text><text x="12" y="162" class="small">sessions and transcript text</text>
    <rect x="186" y="124" width="176" height="52" rx="8" fill="#edfbf7" stroke="#91d7c3"/>
    <text x="198" y="144" class="mono">app_state</text><text x="198" y="162" class="small">small durable key/value state</text>
  </g>
  <text x="885" y="550" class="tiny">SQLite is a partner, not a fake second semantic index.</text>

  <path d="M652 259V269H436V270" fill="none" stroke="#1b86e8" stroke-width="2.3" marker-end="url(#arrowBlue)"/>
  <path d="M1116 259V269H1069V270" fill="none" stroke="#17a77a" stroke-width="2.3" marker-end="url(#arrowGreen)"/>

  <!-- Right rail: core idea and separate capability collection -->
  <g filter="url(#shadow)">
    <rect x="1292" y="108" width="284" height="456" rx="12" fill="#ffffff" stroke="#70b5f0" stroke-width="1.5"/>
    <rect x="1292" y="108" width="284" height="44" rx="12" fill="#e7f5ff"/>
  </g>
  <text x="1310" y="136" class="heading">How to read this</text>
  <rect x="1310" y="170" width="248" height="105" rx="9" fill="#fff9e9" stroke="#efd477"/>
  <text x="1325" y="192" class="section" fill="#8e6810">CORE IDEA</text>
  <text x="1325" y="214" class="small">Five vector axes are five views of</text>
  <text x="1325" y="232" class="small">one memory collection, not five</text>
  <text x="1325" y="250" class="small">independent sources of truth.</text>
  <rect x="1310" y="292" width="248" height="114" rx="9" fill="#f4f1ff" stroke="#b9adf4"/>
  <text x="1325" y="314" class="section-purple">SEPARATE CAPABILITY INDEX</text>
  <text x="1325" y="337" class="mono">voiceloop_capabilities_v1</text>
  <text x="1325" y="358" class="small">semantic + intent + target_context</text>
  <text x="1325" y="378" class="small">Answers "what can VoiceLoop do?"</text>
  <text x="1325" y="396" class="small">Feeds Routing V2 only.</text>
  <rect x="1310" y="423" width="248" height="112" rx="9" fill="#eef8ff" stroke="#a8d1f2"/>
  <text x="1325" y="445" class="section">ASSOCIATIONS VS STATE</text>
  <text x="1325" y="467" class="small">Qdrant retrieves similar evidence.</text>
  <text x="1325" y="486" class="small">SQLite preserves exact operational</text>
  <text x="1325" y="505" class="small">records. Local policy and executor</text>
  <text x="1325" y="524" class="small">still decide what may happen.</text>

  <!-- Storage comparison strip -->
  <g filter="url(#shadow)">
    <rect x="24" y="583" width="1248" height="108" rx="12" fill="#ffffff" stroke="#70b5f0" stroke-width="1.5"/>
    <rect x="24" y="583" width="1248" height="34" rx="12" fill="url(#cyanBand)"/>
  </g>
  <circle cx="46" cy="600" r="13" fill="#1689e7"/>
  <text x="46" y="600" class="num">6</text>
  <text x="65" y="605" class="section">WHAT GETS STORED?</text>
  <g transform="translate(42 632)">
    <rect width="380" height="42" rx="8" fill="#eaf6ff" stroke="#8bc5ef"/>
    <text x="13" y="18" class="mono">Qdrant memory</text><text x="126" y="18" class="small">vectors + source payload + content hash</text>
    <text x="13" y="34" class="tiny">associative lookup; optional expiry metadata</text>
    <rect x="393" width="380" height="42" rx="8" fill="#edfbf7" stroke="#91d7c3"/>
    <text x="406" y="18" class="mono">SQLite</text><text x="475" y="18" class="small">exact rows, history, plans, events, explicit memory</text>
    <text x="406" y="34" class="tiny">WAL database; semantic fallback stored as JSON</text>
    <rect x="786" width="420" height="42" rx="8" fill="#f4f1ff" stroke="#b9adf4"/>
    <text x="799" y="18" class="mono">TurnContext</text><text x="897" y="18" class="small">not stored as one canonical object</text>
    <text x="799" y="34" class="tiny">assembled per turn from bounded current inputs</text>
  </g>

  <!-- Retrieval row -->
  <g filter="url(#shadow)">
    <rect x="24" y="710" width="1248" height="153" rx="12" fill="#ffffff" stroke="#70b5f0" stroke-width="1.5"/>
    <rect x="24" y="710" width="1248" height="34" rx="12" fill="url(#cyanBand)"/>
  </g>
  <circle cx="46" cy="727" r="13" fill="#1689e7"/>
  <text x="46" y="727" class="num">7</text>
  <text x="65" y="732" class="section">WHAT IS READ FOR A NEW TURN?</text>
  <g transform="translate(42 763)">
    <rect width="132" height="53" rx="8" fill="#eff8ff" stroke="#a8d1f2"/>
    <text x="12" y="20" class="chip">Current question</text><text x="12" y="39" class="tiny">clean user text</text>
    <path d="M139 27H169" stroke="#1b86e8" stroke-width="2" marker-end="url(#arrowBlue)"/>
    <rect x="178" width="164" height="53" rx="8" fill="#eff8ff" stroke="#a8d1f2"/>
    <text x="190" y="20" class="chip">5 query documents</text><text x="190" y="39" class="tiny">one meaning per axis</text>
    <path d="M349 27H379" stroke="#1b86e8" stroke-width="2" marker-end="url(#arrowBlue)"/>
    <rect x="388" width="164" height="53" rx="8" fill="#eff8ff" stroke="#a8d1f2"/>
    <text x="400" y="20" class="chip">Local embeddings</text><text x="400" y="39" class="tiny">Nomic via LM Studio</text>
    <path d="M559 27H589" stroke="#1b86e8" stroke-width="2" marker-end="url(#arrowBlue)"/>
    <rect x="598" width="171" height="53" rx="8" fill="#eaf6ff" stroke="#8bc5ef"/>
    <text x="610" y="20" class="chip">5 Qdrant searches</text><text x="610" y="39" class="tiny">per-axis ranks + scores</text>
    <path d="M776 27H806" stroke="#17a77a" stroke-width="2" marker-end="url(#arrowGreen)"/>
    <rect x="815" width="164" height="53" rx="8" fill="#edfbf7" stroke="#91d7c3"/>
    <text x="827" y="20" class="chip">Weighted RRF</text><text x="827" y="39" class="tiny">k=60, adaptive weights</text>
    <path d="M986 27H1016" stroke="#17a77a" stroke-width="2" marker-end="url(#arrowGreen)"/>
    <rect x="1025" width="181" height="53" rx="8" fill="#edfbf7" stroke="#91d7c3"/>
    <text x="1037" y="20" class="chip">Context pack</text><text x="1037" y="39" class="tiny">top hits + SQL memories</text>
  </g>
  <text x="42" y="840" class="small">If Qdrant is unavailable or empty, user retrieval may use SQLite semantic cosine; Screenpipe indexing fails closed instead.</text>
  <text x="42" y="856" class="tiny">Manual memories and recent action summaries are concatenated as bounded context; capabilities are not.</text>

  <!-- Right rail: safety -->
  <g filter="url(#shadow)">
    <rect x="1292" y="583" width="284" height="280" rx="12" fill="#ffffff" stroke="#ef8296" stroke-width="1.5"/>
    <rect x="1292" y="583" width="284" height="44" rx="12" fill="url(#redBand)"/>
  </g>
  <text x="1310" y="611" class="heading" fill="#b82d43">Safety boundaries</text>
  <rect x="1310" y="644" width="248" height="191" rx="9" fill="#fff5f6" stroke="#ef9aaa"/>
  <text x="1325" y="667" class="body">&#8226; memory cannot invent an action</text>
  <text x="1325" y="693" class="body">&#8226; memory cannot lower risk</text>
  <text x="1325" y="719" class="body">&#8226; no silent LLM state write</text>
  <text x="1325" y="745" class="body">&#8226; cloud fallback gets no private memory</text>
  <text x="1325" y="771" class="body">&#8226; success requires ActionResult</text>
  <text x="1325" y="797" class="body">&#8226; SituationState does not steer planning</text>
  <text x="1325" y="823" class="small">Retrieved content is always untrusted input.</text>

  <!-- Planning and write-back -->
  <g filter="url(#shadow)">
    <rect x="24" y="882" width="780" height="169" rx="12" fill="#ffffff" stroke="#36b994" stroke-width="1.5"/>
    <rect x="24" y="882" width="780" height="34" rx="12" fill="url(#greenBand)"/>
  </g>
  <circle cx="46" cy="899" r="13" fill="#17a77a"/>
  <text x="46" y="899" class="num">8</text>
  <text x="65" y="904" class="section-green">PLANNING + POLICY</text>
  <g transform="translate(42 936)">
    <rect width="136" height="51" rx="8" fill="#eff8ff" stroke="#a8d1f2"/>
    <text x="12" y="20" class="chip">TurnContext</text><text x="12" y="38" class="tiny">bounded, untrusted</text>
    <path d="M143 26H171" stroke="#1b86e8" stroke-width="2" marker-end="url(#arrowBlue)"/>
    <rect x="180" width="136" height="51" rx="8" fill="#eff8ff" stroke="#a8d1f2"/>
    <text x="192" y="20" class="chip">ModelRouter</text><text x="192" y="38" class="tiny">primary / allowed fallback</text>
    <path d="M323 26H351" stroke="#1b86e8" stroke-width="2" marker-end="url(#arrowBlue)"/>
    <rect x="360" width="136" height="51" rx="8" fill="#eff8ff" stroke="#a8d1f2"/>
    <text x="372" y="20" class="chip">ProposedPlan</text><text x="372" y="38" class="tiny">typed proposal only</text>
    <path d="M503 26H531" stroke="#17a77a" stroke-width="2" marker-end="url(#arrowGreen)"/>
    <rect x="540" width="203" height="51" rx="8" fill="#edfbf7" stroke="#91d7c3"/>
    <text x="552" y="20" class="chip">Local binding + policy</text><text x="552" y="38" class="tiny">allowlist, schema, risk, consent</text>
  </g>
  <text x="42" y="1008" class="body">A bad action or dependency rejects the whole plan; retrieved text cannot become a step.</text>
  <text x="42" y="1031" class="small">Only a validated CommandPlan may enter the single executor queue.</text>

  <g filter="url(#shadow)">
    <rect x="822" y="882" width="450" height="169" rx="12" fill="#ffffff" stroke="#70b5f0" stroke-width="1.5"/>
    <rect x="822" y="882" width="450" height="34" rx="12" fill="url(#cyanBand)"/>
  </g>
  <circle cx="844" cy="899" r="13" fill="#1689e7"/>
  <text x="844" y="899" class="num">9</text>
  <text x="863" y="904" class="section">CONTROLLED WRITE-BACK</text>
  <text x="840" y="942" class="body">&#8226; commands, status, events, plan, and results &#8594; SQLite</text>
  <text x="840" y="965" class="body">&#8226; explicit remember &#8594; memories + private Qdrant index</text>
  <text x="840" y="988" class="body">&#8226; Screenpipe digest &#8594; Qdrant + optional semantic dual-write</text>
  <text x="840" y="1011" class="body">&#8226; recent ActionResult summary &#8594; bounded later-turn context</text>
  <rect x="840" y="1020" width="414" height="22" rx="7" fill="#fff0f1" stroke="#ef9aaa"/>
  <text x="852" y="1035" class="tiny" fill="#b92d44">No automatic LLM fact, goal, or situation update is committed.</text>

  <path d="M1120 863V873H1047V874" fill="none" stroke="#17a77a" stroke-width="2.3" marker-end="url(#arrowGreen)"/>
  <path d="M804 966H814" fill="none" stroke="#17a77a" stroke-width="2.5" marker-end="url(#arrowGreen)"/>

  <!-- Right rail: why it works -->
  <g filter="url(#shadow)">
    <rect x="1292" y="882" width="284" height="169" rx="12" fill="#ffffff" stroke="#70b5f0" stroke-width="1.5"/>
    <rect x="1292" y="882" width="284" height="44" rx="12" fill="#e7f5ff"/>
  </g>
  <text x="1310" y="910" class="heading">Why this works</text>
  <text x="1310" y="946" class="body">1. Associations stay separate from truth.</text>
  <text x="1310" y="969" class="body">2. Five meanings improve recall coverage.</text>
  <text x="1310" y="992" class="body">3. SQL preserves exact replayable records.</text>
  <text x="1310" y="1015" class="body">4. Capability search cannot pollute memory.</text>
  <text x="1310" y="1038" class="body">5. Tests enforce the trust boundaries.</text>

  <!-- Bottom lifecycle -->
  <g filter="url(#shadow)">
    <rect x="24" y="1070" width="1552" height="87" rx="12" fill="#ffffff" stroke="#70b5f0" stroke-width="1.5"/>
    <rect x="24" y="1070" width="1552" height="31" rx="12" fill="url(#cyanBand)"/>
  </g>
  <text x="43" y="1091" class="section">MEMORY LIFECYCLE - QUERY, EVIDENCE, POLICY, RESULT</text>
  <g transform="translate(52 1117)">
    <circle cx="13" cy="13" r="13" fill="#1689e7"/><text x="13" y="13" class="timeline-num">1</text><text x="34" y="17" class="chip">question</text>
    <path d="M101 13H133" stroke="#1b86e8" stroke-width="2" marker-end="url(#arrowBlue)"/>
    <circle cx="153" cy="13" r="13" fill="#1689e7"/><text x="153" y="13" class="timeline-num">2</text><text x="174" y="17" class="chip">5 query views</text>
    <path d="M284 13H316" stroke="#1b86e8" stroke-width="2" marker-end="url(#arrowBlue)"/>
    <circle cx="336" cy="13" r="13" fill="#1689e7"/><text x="336" y="13" class="timeline-num">3</text><text x="357" y="17" class="chip">rank fusion</text>
    <path d="M457 13H489" stroke="#17a77a" stroke-width="2" marker-end="url(#arrowGreen)"/>
    <circle cx="509" cy="13" r="13" fill="#17a77a"/><text x="509" y="13" class="timeline-num">4</text><text x="530" y="17" class="chip">context pack</text>
    <path d="M638 13H670" stroke="#17a77a" stroke-width="2" marker-end="url(#arrowGreen)"/>
    <circle cx="690" cy="13" r="13" fill="#1689e7"/><text x="690" y="13" class="timeline-num">5</text><text x="711" y="17" class="chip">typed proposal</text>
    <path d="M827 13H859" stroke="#1b86e8" stroke-width="2" marker-end="url(#arrowBlue)"/>
    <circle cx="879" cy="13" r="13" fill="#17a77a"/><text x="879" y="13" class="timeline-num">6</text><text x="900" y="17" class="chip">local policy</text>
    <path d="M1007 13H1039" stroke="#17a77a" stroke-width="2" marker-end="url(#arrowGreen)"/>
    <circle cx="1059" cy="13" r="13" fill="#1689e7"/><text x="1059" y="13" class="timeline-num">7</text><text x="1080" y="17" class="chip">ActionResult</text>
    <path d="M1190 13H1222" stroke="#1b86e8" stroke-width="2" marker-end="url(#arrowBlue)"/>
    <circle cx="1242" cy="13" r="13" fill="#17a77a"/><text x="1242" y="13" class="timeline-num">8</text><text x="1263" y="17" class="chip">controlled write-back</text>
  </g>

  <text x="24" y="1182" class="tiny">VoiceLoop | memory infographic v2 | five named vectors + canonical SQLite records</text>
  <text x="1576" y="1182" class="tiny" text-anchor="end">Canonical details: docs/ARCHITECTURE_CURRENT.md</text>
</svg>
